REM DIRINDEX 1\8,1\2\11,1\3\12,1\3\14,1\5\15,1\5\16,1\6\17,1\6\18,1\4\19,1\4\20,1\4\21,1\4\22,1\7\23,1\7\24,1\7\25,1\2\9\26,1\2\9\27,1\2\10\28,1\2\10\29,1\2\10\30,1\2\10\31,1\2\10\32,1\3\13\33,1\3\13\34,1\3\13\35
REM DIRNAME folder01,folder02,folder03,folder04,folder05,folder06,folder07,folder08,folder09,folder10,folder11,folder12,folder13,folder14,folder15,folder16,folder17,folder18,folder19,folder20,folder21,folder22,folder23,folder24,folder25,folder26,folder27,folder28,folder29,folder30,folder31,folder32,folder33,folder34,folder35
TITLE ""
FILE "129 129_—á•¶UNIT2_SET1.mp3" MP3
  TRACK 01 AUDIO
    TITLE "22:cjc123_2912"
    INDEX 01 00:00:00
  TRACK 02 AUDIO
    TITLE "0:"
    INDEX 01 00:02:47
  TRACK 03 AUDIO
    TITLE "19:cjc123_2913"
    INDEX 01 00:03:31
  TRACK 04 AUDIO
    TITLE "0:"
    INDEX 01 00:06:67
  TRACK 05 AUDIO
    TITLE "20:cjc123_2914"
    INDEX 01 00:07:33
  TRACK 06 AUDIO
    TITLE "0:"
    INDEX 01 00:11:17
  TRACK 07 AUDIO
    TITLE "21:cjc123_2915"
    INDEX 01 00:11:48
  TRACK 08 AUDIO
    TITLE "0:"
    INDEX 01 00:15:11
  TRACK 09 AUDIO
    TITLE "19:cjc123_2916"
    INDEX 01 00:16:00
  TRACK 10 AUDIO
    TITLE "0:"
    INDEX 01 00:19:63
  TRACK 11 AUDIO
    TITLE "20:cjc123_2917"
    INDEX 01 00:19:73
  TRACK 12 AUDIO
    TITLE "0:"
    INDEX 01 00:22:60
  TRACK 13 AUDIO
    TITLE "21:cjc123_2918"
    INDEX 01 00:23:12
  TRACK 14 AUDIO
    TITLE "0:"
    INDEX 01 00:27:00
  TRACK 15 AUDIO
    TITLE "19:cjc123_2919"
    INDEX 01 00:27:51
  TRACK 16 AUDIO
    TITLE "0:"
    INDEX 01 00:30:32
  TRACK 17 AUDIO
    TITLE "20:cjc123_2920"
    INDEX 01 00:30:61
  TRACK 18 AUDIO
    TITLE "0:"
    INDEX 01 00:34:08
  TRACK 19 AUDIO
    TITLE "21:cjc123_2921"
    INDEX 01 00:34:38
  TRACK 20 AUDIO
    TITLE "0:"
    INDEX 01 00:37:18
  TRACK 21 AUDIO
    TITLE "19:cjc123_2922"
    INDEX 01 00:37:63
  TRACK 22 AUDIO
    TITLE "0:"
    INDEX 01 00:40:15
  TRACK 23 AUDIO
    TITLE "20:cjc123_2923"
    INDEX 01 00:40:56
  TRACK 24 AUDIO
    TITLE "0:"
    INDEX 01 00:43:25
  TRACK 25 AUDIO
    TITLE "21:cjc123_2924"
    INDEX 01 00:43:52
  TRACK 26 AUDIO
    TITLE "0:"
    INDEX 01 00:46:06
  TRACK 27 AUDIO
    TITLE "19:cjc123_2925"
    INDEX 01 00:46:64
  TRACK 28 AUDIO
    TITLE "0:"
    INDEX 01 00:50:11
  TRACK 29 AUDIO
    TITLE "20:cjc123_2926"
    INDEX 01 00:50:44
  TRACK 30 AUDIO
    TITLE "0:"
    INDEX 01 00:52:73
  TRACK 31 AUDIO
    TITLE "21:cjc123_2927"
    INDEX 01 00:53:33
  TRACK 32 AUDIO
    TITLE "0:"
    INDEX 01 00:56:57
  TRACK 33 AUDIO
    TITLE "19:cjc123_2928"
    INDEX 01 00:57:37
  TRACK 34 AUDIO
    TITLE "0:"
    INDEX 01 01:00:60
  TRACK 35 AUDIO
    TITLE "20:cjc123_2929"
    INDEX 01 01:01:27
  TRACK 36 AUDIO
    TITLE "0:"
    INDEX 01 01:04:68
  TRACK 37 AUDIO
    TITLE "21:cjc123_2930"
    INDEX 01 01:05:21
  TRACK 38 AUDIO
    TITLE "0:"
    INDEX 01 01:08:52
  TRACK 39 AUDIO
    TITLE "19:cjc123_2931"
    INDEX 01 01:09:28
  TRACK 40 AUDIO
    TITLE "0:"
    INDEX 01 01:12:73
  TRACK 41 AUDIO
    TITLE "20:cjc123_2932"
    INDEX 01 01:13:47
  TRACK 42 AUDIO
    TITLE "0:"
    INDEX 01 01:17:63
  TRACK 43 AUDIO
    TITLE "21:cjc123_2933"
    INDEX 01 01:18:13
  TRACK 44 AUDIO
    TITLE "0:"
    INDEX 01 01:21:59
  TRACK 45 AUDIO
    TITLE "19:cjc123_2934"
    INDEX 01 01:22:37
  TRACK 46 AUDIO
    TITLE "0:"
    INDEX 01 01:25:74
  TRACK 47 AUDIO
    TITLE "20:cjc123_2935"
    INDEX 01 01:26:30
  TRACK 48 AUDIO
    TITLE "0:"
    INDEX 01 01:30:46
  TRACK 49 AUDIO
    TITLE "21:cjc123_2936"
    INDEX 01 01:31:00
  TRACK 50 AUDIO
    TITLE "0:"
    INDEX 01 01:34:38
  TRACK 51 AUDIO
    TITLE "19:cjc123_2937"
    INDEX 01 01:35:08
  TRACK 52 AUDIO
    TITLE "0:"
    INDEX 01 01:39:06
  TRACK 53 AUDIO
    TITLE "20:cjc123_2938"
    INDEX 01 01:39:39
  TRACK 54 AUDIO
    TITLE "0:"
    INDEX 01 01:43:58
  TRACK 55 AUDIO
    TITLE "21:cjc123_2939"
    INDEX 01 01:44:15
  TRACK 56 AUDIO
    TITLE "0:"
    INDEX 01 01:48:14
  TRACK 57 AUDIO
    TITLE "19:cjc123_2940"
    INDEX 01 01:48:60
  TRACK 58 AUDIO
    TITLE "0:"
    INDEX 01 01:52:53
  TRACK 59 AUDIO
    TITLE "20:cjc123_2941"
    INDEX 01 01:53:20
  TRACK 60 AUDIO
    TITLE "0:"
    INDEX 01 01:56:73
  TRACK 61 AUDIO
    TITLE "21:cjc123_2942"
    INDEX 01 01:57:29
  TRACK 62 AUDIO
    TITLE "0:"
    INDEX 01 02:01:25
  TRACK 63 AUDIO
    TITLE "19:cjc123_2943"
    INDEX 01 02:02:05
  TRACK 64 AUDIO
    TITLE "0:"
    INDEX 01 02:05:62
  TRACK 65 AUDIO
    TITLE "20:cjc123_2944"
    INDEX 01 02:06:24
  TRACK 66 AUDIO
    TITLE "0:"
    INDEX 01 02:10:10
  TRACK 67 AUDIO
    TITLE "21:cjc123_2945"
    INDEX 01 02:10:40
  TRACK 68 AUDIO
    TITLE "0:"
    INDEX 01 02:14:20
  TRACK 69 AUDIO
    TITLE "19:cjc123_2946"
    INDEX 01 02:15:05
  TRACK 70 AUDIO
    TITLE "0:"
    INDEX 01 02:18:66
  TRACK 71 AUDIO
    TITLE "20:cjc123_2947"
    INDEX 01 02:19:21
  TRACK 72 AUDIO
    TITLE "0:"
    INDEX 01 02:22:15
  TRACK 73 AUDIO
    TITLE "21:cjc123_2948"
    INDEX 01 02:22:51
  TRACK 74 AUDIO
    TITLE "0:"
    INDEX 01 02:26:35
  TRACK 75 AUDIO
    TITLE "19:cjc123_2949"
    INDEX 01 02:27:07
  TRACK 76 AUDIO
    TITLE "0:"
    INDEX 01 02:30:68
  TRACK 77 AUDIO
    TITLE "20:cjc123_2950"
    INDEX 01 02:31:24
  TRACK 78 AUDIO
    TITLE "0:"
    INDEX 01 02:35:51
  TRACK 79 AUDIO
    TITLE "21:cjc123_2951"
    INDEX 01 02:36:06
  TRACK 80 AUDIO
    TITLE "0:"
    INDEX 01 02:39:65
  TRACK 81 AUDIO
    TITLE "19:cjc123_2952"
    INDEX 01 02:40:43
  TRACK 82 AUDIO
    TITLE "0:"
    INDEX 01 02:43:66
  TRACK 83 AUDIO
    TITLE "20:cjc123_2953"
    INDEX 01 02:44:23
  TRACK 84 AUDIO
    TITLE "0:"
    INDEX 01 02:48:64
  TRACK 85 AUDIO
    TITLE "21:cjc123_2954"
    INDEX 01 02:49:18
  TRACK 86 AUDIO
    TITLE "0:"
    INDEX 01 02:52:42
  TRACK 87 AUDIO
    TITLE "19:cjc123_2955"
    INDEX 01 02:53:20
  TRACK 88 AUDIO
    TITLE "0:"
    INDEX 01 02:57:41
  TRACK 89 AUDIO
    TITLE "20:cjc123_2956"
    INDEX 01 02:58:01
  TRACK 90 AUDIO
    TITLE "0:"
    INDEX 01 03:02:30
  TRACK 91 AUDIO
    TITLE "21:cjc123_2957"
    INDEX 01 03:02:60
  TRACK 92 AUDIO
    TITLE "0:"
    INDEX 01 03:07:04
